<?xml version="1.0" encoding="utf-8"?><svg xmlns="http://www.w3.org/2000/svg" xmlns:xlink="http://www.w3.org/1999/xlink"><symbol viewBox="0 0 24 24" id="bag" xmlns="http://www.w3.org/2000/svg"><path d="M23.845 8.224a.533.533 0 00-.444-.148h-6.367V5.263a5.034 5.034 0 10-10.068 0v2.813H.599c-.178 0-.355 0-.444.148a.504.504 0 00-.148.445l2.22 12.141a3.613 3.613 0 003.495 2.961h12.556a3.642 3.642 0 003.494-2.99l2.221-12.112a.503.503 0 00-.148-.445zM8.15 5.263a3.85 3.85 0 017.7 0v2.813h-7.7V5.263zm12.438 15.37a2.37 2.37 0 01-2.31 1.954H5.722a2.37 2.37 0 01-2.31-1.955L1.31 9.261h21.38l-2.102 11.371z"/><path d="M16.442 15.035a.592.592 0 00.592-.592v-1.777a.592.592 0 10-1.184 0v1.777c0 .327.265.592.592.592zm-8.884 0a.592.592 0 00.592-.592v-1.777a.592.592 0 10-1.184 0v1.777c0 .327.265.592.592.592z"/></symbol><symbol viewBox="0 0 17 17" id="call" xmlns="http://www.w3.org/2000/svg"><g clip-path="url(#bclip0_33646_426)"><path d="M2.252 4.816a3.856 3.856 0 000 5.448l.798-.798a2.727 2.727 0 010-3.852 2.727 2.727 0 013.852 0l.798-.798a3.856 3.856 0 00-5.448 0z"/><path d="M3.841 6.391a1.623 1.623 0 000 2.293l.798-.797a.49.49 0 010-.698.49.49 0 01.698 0l.797-.798a1.623 1.623 0 00-2.293 0zm9.907-1.956l-1.893-1.887-3.932 3.926 1.525 1.574a10.79 10.79 0 01-1.755 2.267 10.919 10.919 0 01-2.277 1.764l-1.543-1.523-3.87 3.847 1.882 1.895c.72.72 1.815.907 2.725.465 1.39-.675 3.485-1.92 5.584-4.019 2.1-2.098 3.344-4.195 4.018-5.584.16-.329.238-.682.238-1.033 0-.62-.242-1.232-.702-1.692zm-.55 2.232c-.637 1.311-1.814 3.292-3.801 5.28-1.988 1.988-3.969 3.164-5.28 3.8a1.255 1.255 0 01-1.433-.245l-1.087-1.094 2.278-2.264L5.19 13.44l.352-.156c.057-.026 1.417-.641 2.95-2.173 1.532-1.533 2.135-2.881 2.16-2.938l.152-.347-1.297-1.34 2.349-2.345 1.095 1.091c.38.38.479.957.247 1.434z"/></g><defs><clipPath id="bclip0_33646_426"><path d="M0 0h17v17H0z"/></clipPath></defs></symbol><symbol viewBox="0 0 19 25" id="dress" xmlns="http://www.w3.org/2000/svg"><path d="M18.517 22.65l-.358-1.672a28.298 28.298 0 00-4.02-9.625V8.64a3.659 3.659 0 001.465-2.928V4.248a.732.732 0 00-.733-.732h-.732V.732a.733.733 0 00-1.465 0v2.791A4.15 4.15 0 009.5 5.315a4.15 4.15 0 00-3.174-1.792V.733a.732.732 0 00-1.465 0v2.783H4.13a.732.732 0 00-.733.732v1.465a3.66 3.66 0 001.465 2.928v2.712a28.3 28.3 0 00-4.02 9.625l-.358 1.671a.732.732 0 00.466.842A24.909 24.909 0 009.5 25a24.91 24.91 0 008.552-1.51.732.732 0 00.465-.84zM12.918 4.98h1.22v.733a2.2 2.2 0 01-2.197 2.197h-1.709v-.244a2.689 2.689 0 012.686-2.686zm-8.057 0h1.221a2.689 2.689 0 012.686 2.686v.244h-1.71a2.2 2.2 0 01-2.197-2.197V4.98zM7.06 9.375h4.882c.251 0 .496-.025.733-.074v1.539H6.326V9.3c.237.049.482.074.733.074zm2.44 14.16c-2.542 0-5.044-.407-7.45-1.21l.224-1.04a26.84 26.84 0 013.715-8.98h7.022a26.84 26.84 0 013.715 8.98l.223 1.04a23.444 23.444 0 01-7.449 1.21z"/></symbol><symbol viewBox="0 0 21 21" id="facebook" xmlns="http://www.w3.org/2000/svg"><g clip-path="url(#dclip0_4_303)"><path d="M18.54 0H2.46A2.464 2.464 0 000 2.46v16.08A2.464 2.464 0 002.46 21h16.08A2.464 2.464 0 0021 18.54V2.46A2.464 2.464 0 0018.54 0zm.82 18.54c0 .451-.369.82-.82.82H13.7v-5.99h2.625l.306-2.543H13.7V8.08c0-.701.53-1.23 1.23-1.23h1.846V4.47c-.485-.068-1.422-.163-1.845-.163-.957 0-1.916.403-2.631 1.107-.737.725-1.143 1.674-1.143 2.673v2.741H8.49v2.543h2.666v5.988H2.461a.821.821 0 01-.82-.82V2.461c0-.452.368-.82.82-.82h16.078c.452 0 .82.368.82.82v16.078z"/></g><defs><clipPath id="dclip0_4_303"><path d="M0 0h21v21H0z"/></clipPath></defs></symbol><symbol viewBox="0 0 22 23" id="instagram" xmlns="http://www.w3.org/2000/svg"><g clip-path="url(#eclip0_4_278)"><path d="M15.61.5H6.39A6.398 6.398 0 000 6.89v9.22a6.398 6.398 0 006.39 6.39h9.22A6.398 6.398 0 0022 16.11V6.89A6.398 6.398 0 0015.61.5zm4.671 15.61a4.677 4.677 0 01-4.672 4.671H6.391a4.677 4.677 0 01-4.672-4.672V6.891A4.677 4.677 0 016.39 2.219h9.218a4.677 4.677 0 014.672 4.672v9.218z"/><path d="M11 5.57c-3.27 0-5.93 2.66-5.93 5.93 0 3.27 2.66 5.93 5.93 5.93 3.27 0 5.93-2.66 5.93-5.93 0-3.27-2.66-5.93-5.93-5.93zm0 10.14a4.216 4.216 0 01-4.21-4.21A4.216 4.216 0 0111 7.29a4.216 4.216 0 014.21 4.21A4.216 4.216 0 0111 15.71zm6.016-9.366a.86.86 0 100-1.72.86.86 0 000 1.72z"/></g><defs><clipPath id="eclip0_4_278"><path transform="translate(0 .5)" d="M0 0h22v22H0z"/></clipPath></defs></symbol><symbol viewBox="0 0 29 16" id="next" xmlns="http://www.w3.org/2000/svg"><path d="M0 8h28m0 0l-7.19 7M28 8l-7.19-7"/></symbol><symbol viewBox="0 0 23 23" id="twitter" xmlns="http://www.w3.org/2000/svg"><path d="M20.271 5.165l-.011-.044a4.867 4.867 0 002.111-2.65 9.815 9.815 0 01-3.055 1.168c-.86-.918-2.01-1.483-3.369-1.483-2.604 0-4.761 2.109-4.761 4.717 0 .371.052.735.134 1.078v.045C7.44 7.774 3.924 5.8 1.617 2.965c-.405.697-.629 1.694-.629 2.56 0 1.348.8 3.153 2.067 3.998v.09c-.756-.03-1.53-.551-2.157-.898 0 .02.028.045.028.066 0 2.289 1.677 4.263 3.836 4.696-.376.1-.906.18-1.303.18-.305 0-.61-.08-.898-.136.6 1.877 2.335 3.1 4.402 3.1v.045c-1.609 1.247-3.647 2.111-5.84 2.111-.38 0-.853-.045-1.123-.09 2.086 1.34 4.566 2.157 7.232 2.157 8.678 0 13.432-7.143 13.432-13.387v-.629c.923-.667 1.705-1.567 2.336-2.516 0 0-1.656.785-2.729.853zm-1.404 2.292c0 1.348-.264 2.764-.764 4.094a11.977 11.977 0 01-2.246 3.75c-1.514 1.709-4.239 3.746-8.625 3.746-.128 0-.257-.002-.386-.007.424-.245.83-.519 1.218-.82l.696-.539v-2.857l-.74-.008a1.477 1.477 0 01-1.461-1.477v-1.47l-.972-.219a.943.943 0 01-.735-.92V9.48l-.023-.916-.799-.534a3.666 3.666 0 01-.88-1.154c2.357 1.72 5.158 2.749 8.068 2.915l1.9.109V7.74l-.05-.207a2.857 2.857 0 01-.086-.659c0-.774.31-1.504.87-2.057a2.968 2.968 0 012.095-.863c.796 0 1.49.308 2.06.915l.458.489.055.214.012.044.335 1.298v.544z"/></symbol></svg>